filtEMG_segment_2.mot
version=1
nRows=117
nColumns=4
inDegrees=no
endheader
                Time	                LMEH	                LBIF	                LREF	
          2.93000000	          0.00441737	          0.01380716	          0.01646844	
          2.93500000	          0.00434943	          0.01392360	          0.01727915	
          2.94000000	          0.00425976	          0.01405566	          0.01810677	
          2.94500000	          0.00414887	          0.01419851	          0.01887670	
          2.95000000	          0.00401878	          0.01434984	          0.01950575	
          2.95500000	          0.00387315	          0.01450985	          0.01991101	
          2.96000000	          0.00371736	          0.01468081	          0.02001957	
          2.96500000	          0.00355830	          0.01486642	          0.01977790	
          2.97000000	          0.00340396	          0.01507100	          0.01915995	
          2.97500000	          0.00326279	          0.01529859	          0.01817293	
          2.98000000	          0.00314300	          0.01555210	          0.01685995	
          2.98500000	          0.00305170	          0.01583257	          0.01529930	
          2.99000000	          0.00299412	          0.01613863	          0.01359998	
          2.99500000	          0.00297300	          0.01646616	          0.01189399	
          3.00000000	          0.00298810	          0.01680823	          0.01032585	
          3.00500000	          0.00303611	          0.01715533	          0.00904027	
          3.01000000	          0.00311076	          0.01749587	          0.00816910	
          3.01500000	          0.00320333	          0.01781695	          0.00781872	
          3.02000000	          0.00330333	          0.01810527	          0.00805910	
          3.02500000	          0.00339948	          0.01834820	          0.00891563	
          3.03000000	          0.00348065	          0.01853481	          0.01036460	
          3.03500000	          0.00353695	          0.01865683	          0.01233294	
          3.04000000	          0.00356061	          0.01870930	          0.01470247	
          3.04500000	          0.00354671	          0.01869097	          0.01731836	
          3.05000000	          0.00349361	          0.01860424	          0.02000135	
          3.05500000	          0.00340321	          0.01845475	          0.02256250	
          3.06000000	          0.00328069	          0.01825051	          0.02481931	
          3.06500000	          0.00313413	          0.01800096	          0.02661157	
          3.07000000	          0.00297379	          0.01771583	          0.02781531	
          3.07500000	          0.00281119	          0.01740425	          0.02835359	
          3.08000000	          0.00265807	          0.01707412	          0.02820271	
          3.08500000	          0.00252539	          0.01673185	          0.02739347	
          3.09000000	          0.00242225	          0.01638264	          0.02600715	
          3.09500000	          0.00235511	          0.01603107	          0.02416677	
          3.10000000	          0.00232715	          0.01568192	          0.02202467	
          3.10500000	          0.00233793	          0.01534112	          0.01974765	
          3.11000000	          0.00238345	          0.01501640	          0.01750155	
          3.11500000	          0.00245640	          0.01471767	          0.01543662	
          3.12000000	          0.00254693	          0.01445692	          0.01367535	
          3.12500000	          0.00264346	          0.01424754	          0.01230386	
          3.13000000	          0.00273384	          0.01410332	          0.01136746	
          3.13500000	          0.00280653	          0.01403711	          0.01087062	
          3.14000000	          0.00285175	          0.01405938	          0.01078108	
          3.14500000	          0.00286251	          0.01417695	          0.01103731	
          3.15000000	          0.00283539	          0.01439191	          0.01155840	
          3.15500000	          0.00277101	          0.01470100	          0.01225500	
          3.16000000	          0.00267406	          0.01509541	          0.01304011	
          3.16500000	          0.00255306	          0.01556102	          0.01383856	
          3.17000000	          0.00241961	          0.01607910	          0.01459409	
          3.17500000	          0.00228734	          0.01662732	          0.01527354	
          3.18000000	          0.00217073	          0.01718105	          0.01586769	
          3.18500000	          0.00208362	          0.01771486	          0.01638916	
          3.19000000	          0.00203790	          0.01820411	          0.01686756	
          3.19500000	          0.00204223	          0.01862652	          0.01734286	
          3.20000000	          0.00210108	          0.01896361	          0.01785785	
          3.20500000	          0.00221414	          0.01920194	          0.01845061	
          3.21000000	          0.00237614	          0.01933399	          0.01914795	
          3.21500000	          0.00257720	          0.01935869	          0.01996051	
          3.22000000	          0.00280359	          0.01928139	          0.02088001	
          3.22500000	          0.00303893	          0.01911336	          0.02187877	
          3.23000000	          0.00326561	          0.01887076	          0.02291163	
          3.23500000	          0.00346650	          0.01857324	          0.02391981	
          3.24000000	          0.00362647	          0.01824206	          0.02483643	
          3.24500000	          0.00373388	          0.01789818	          0.02559298	
          3.25000000	          0.00378172	          0.01756022	          0.02612639	
          3.25500000	          0.00376826	          0.01724276	          0.02638573	
          3.26000000	          0.00369725	          0.01695495	          0.02633829	
          3.26500000	          0.00357753	          0.01669983	          0.02597416	
          3.27000000	          0.00342220	          0.01647433	          0.02530908	
          3.27500000	          0.00324735	          0.01626997	          0.02438498	
          3.28000000	          0.00307049	          0.01607437	          0.02326826	
          3.28500000	          0.00290893	          0.01587324	          0.02204561	
          3.29000000	          0.00277812	          0.01565262	          0.02081774	
          3.29500000	          0.00269032	          0.01540127	          0.01969144	
          3.30000000	          0.00265345	          0.01511268	          0.01877060	
          3.30500000	          0.00267059	          0.01478657	          0.01814693	
          3.31000000	          0.00273983	          0.01442970	          0.01789131	
          3.31500000	          0.00285464	          0.01405576	          0.01804642	
          3.32000000	          0.00300477	          0.01368443	          0.01862166	
          3.32500000	          0.00317729	          0.01333963	          0.01959083	
          3.33000000	          0.00335799	          0.01304729	          0.02089298	
          3.33500000	          0.00353273	          0.01283270	          0.02243669	
          3.34000000	          0.00368863	          0.01271784	          0.02410740	
          3.34500000	          0.00381514	          0.01271905	          0.02577734	
          3.35000000	          0.00390464	          0.01284503	          0.02731709	
          3.35500000	          0.00395281	          0.01309563	          0.02860771	
          3.36000000	          0.00395853	          0.01346138	          0.02955205	
          3.36500000	          0.00392358	          0.01392378	          0.03008428	
          3.37000000	          0.00385204	          0.01445639	          0.03017630	
          3.37500000	          0.00374960	          0.01502649	          0.02984051	
          3.38000000	          0.00362289	          0.01559732	          0.02912867	
          3.38500000	          0.00347880	          0.01613057	          0.02812674	
          3.39000000	          0.00332403	          0.01658904	          0.02694640	
          3.39500000	          0.00316468	          0.01693933	          0.02571416	
          3.40000000	          0.00300618	          0.01715425	          0.02455886	
          3.40500000	          0.00285322	          0.01721495	          0.02359921	
          3.41000000	          0.00270990	          0.01711252	          0.02293219	
          3.41500000	          0.00257990	          0.01684895	          0.02262371	
          3.42000000	          0.00246664	          0.01643737	          0.02270232	
          3.42500000	          0.00237341	          0.01590149	          0.02315657	
          3.43000000	          0.00230336	          0.01527416	          0.02393637	
          3.43500000	          0.00225946	          0.01459526	          0.02495806	
          3.44000000	          0.00224429	          0.01390889	          0.02611288	
          3.44500000	          0.00225977	          0.01326013	          0.02727782	
          3.45000000	          0.00230689	          0.01269164	          0.02832785	
          3.45500000	          0.00238545	          0.01224036	          0.02914829	
          3.46000000	          0.00249384	          0.01193460	          0.02964595	
          3.46500000	          0.00262894	          0.01179182	          0.02975791	
          3.47000000	          0.00278615	          0.01181726	          0.02945720	
          3.47500000	          0.00295961	          0.01200358	          0.02875457	
          3.48000000	          0.00314244	          0.01233156	          0.02769661	
          3.48500000	          0.00332717	          0.01277173	          0.02636033	
          3.49000000	          0.00350622	          0.01328685	          0.02484515	
          3.49500000	          0.00367232	          0.01383489	          0.02326330	
          3.50000000	          0.00381898	          0.01437248	          0.02172961	
          3.50500000	          0.00394079	          0.01485814	          0.02035206	
          3.51000000	          0.00403366	          0.01525548	          0.01922361	
